<svg id="Layer_1" data-name="Layer 1" xmlns="http://www.w3.org/2000/svg" viewBox="0 0 625.9 379.71"><defs><style>.cls-1{fill:#822a88;}.cls-2{fill:#fffdfd;stroke:#fdfdff;stroke-miterlimit:10;}.cls-3{font-size:115px;font-family:Aktiv Grotesk;}</style></defs><title>logo4</title><rect class="cls-1" x="129.11" width="361" height="253"/><polygon class="cls-2" points="335.04 24.53 440.91 24.53 440.91 71.74 374.24 71.74 374.24 62.58 433.18 62.3 432.89 33.11 344.2 32.83 344.77 117.52 410.29 117.52 410.29 127.82 335.04 127.82 335.04 24.53"/><polygon class="cls-2" points="421.74 51.71 421.74 41.98 351.92 41.98 351.92 108.08 421.74 108.08 421.74 136.69 335.04 136.69 335.04 206.5 421.74 206.5 421.74 197.34 344.49 197.34 343.91 146.41 430.89 145.84 430.89 98.35 362.8 98.35 362.8 53.14 421.74 53.14 421.74 51.71"/><polygon class="cls-2" points="312.95 24.53 323.45 24.53 323.45 216.26 430.89 216.26 430.89 185.76 352.45 185.76 352.45 157.76 361.95 157.76 361.95 176.76 440.91 176.76 440.91 224.76 312.95 224.76 312.95 24.53"/><polygon class="cls-2" points="282.18 224.76 176.32 224.76 176.32 177.55 242.98 177.55 242.98 186.71 184.04 186.99 184.33 216.18 273.02 216.46 272.45 131.77 206.93 131.77 206.93 121.47 282.18 121.47 282.18 224.76"/><polygon class="cls-2" points="195.49 197.58 195.49 207.31 265.3 207.31 265.3 141.21 195.49 141.21 195.49 112.6 282.18 112.6 282.18 42.79 195.49 42.79 195.49 51.95 272.74 51.95 273.31 102.87 186.33 103.45 186.33 150.94 254.43 150.94 254.43 196.15 195.49 196.15 195.49 197.58"/><polygon class="cls-2" points="304.27 224.76 293.77 224.76 293.77 33.03 186.33 33.03 186.33 63.53 264.77 63.53 264.77 91.53 255.27 91.53 255.27 72.53 176.32 72.53 176.32 24.53 304.27 24.53 304.27 224.76"/><text class="cls-3" transform="translate(59.03 351.11)">EDUT<tspan x="286.35" y="0">E</tspan><tspan x="351.67" y="0">CH</tspan></text></svg>